<?xml version="1.0" encoding="UTF-8"?>
<svg id="Warstwa_2" data-name="Warstwa 2" xmlns="http://www.w3.org/2000/svg" viewBox="0 0 699.76 115.74">
  <defs>
    <style>
      .cls-1 {
        fill: #fff;
      }
    </style>
  </defs>
  <g id="Warstwa_1-2" data-name="Warstwa 1">
    <g>
      <g>
        <path class="cls-1" d="M59.17,115.74L0,72.01,23.3,2.22l73.58.6,22.17,70.16-59.87,42.76ZM13.84,67.64l45.45,33.59,45.99-32.85-17.03-53.88-56.51-.46-17.9,53.6Z"/>
        <path class="cls-1" d="M59.17,115.74L0,72.01,23.3,2.22l73.58.6,22.17,70.16-59.87,42.76ZM13.84,67.64l45.45,33.59,45.99-32.85-17.03-53.88-56.51-.46-17.9,53.6Z"/>
      </g>
      <g>
        <path class="cls-1" d="M151.34,23.77c0-14.47,16.29-23.77,43.14-23.77s43.14,9.3,43.14,23.77-15.87,24.33-43.14,24.33-43.14-9.37-43.14-24.33ZM209.86,23.91c0-4.82-6.08-7.97-15.38-7.97s-15.38,3.15-15.38,7.97c0,5.1,5.8,8.25,15.38,8.25s15.38-3.15,15.38-8.25Z"/>
        <path class="cls-1" d="M234.05,1.05h32.93l16.71,25.59,16.15-25.59h27.41l-31.6,46h-29.99L234.05,1.05Z"/>
        <path class="cls-1" d="M331.16,1.05h61.39v15.17h-35.03v4.12h23.98v7.34h-23.98v4.19h35.94v15.17h-62.29V1.05Z"/>
        <path class="cls-1" d="M398.56,1.05h41.18c23.98,0,31.39,5.87,31.39,14.4,0,4.19-2.03,9.58-12.72,11.05v.14c11.19,1.12,12.65,6.43,12.65,11.19v9.23h-26.43v-9.09c0-3.43-1.05-5.31-7.34-5.31h-12.38v14.4h-26.36V1.05ZM438.06,23.35c5.8,0,8.11-.98,8.11-3.22s-2.31-3.15-8.25-3.15h-13v6.36h13.14Z"/>
        <path class="cls-1" d="M532.59,40.34h-25.45l-4.06,6.71h-28.04L506.02,1.05h32.86l30.97,46h-33.42l-3.85-6.71ZM527.21,30.97l-6.92-12.17h-.28l-7.27,12.17h14.47Z"/>
        <path class="cls-1" d="M573.91,1.05h27.13v28.46h33.56v17.55h-60.69V1.05Z"/>
        <path class="cls-1" d="M639.07,1.05h27.13v28.46h33.56v17.55h-60.69V1.05Z"/>
        <path class="cls-1" d="M151.34,86.58c0-14.96,14.82-24.68,42.16-24.68,25.24,0,37.96,7.27,37.96,17.83,0,.49-.07,1.4-.21,2.24h-22.51v-.35c0-2.24-3.78-4.4-13.77-4.4-10.56,0-16.22,3.78-16.22,9.51s4.82,9.58,15.45,9.58c8.74,0,12.31-2.38,12.31-3.71v-.21h-14.54v-7.13h40.62v23.7h-20.7c.21-2.17.42-5.24.49-7.83h-.14c-2.45,5.66-10.77,8.88-23.63,8.88-24.4,0-37.27-9.44-37.27-23.42Z"/>
        <path class="cls-1" d="M294.39,102.24h-25.45l-4.06,6.71h-28.04l30.97-46h32.86l30.97,46h-33.42l-3.85-6.71ZM289,92.87l-6.92-12.17h-.28l-7.27,12.17h14.47Z"/>
        <path class="cls-1" d="M432.47,62.95v46h-26.43v-26.29h-.07l-14.19,26.29h-20.14l-14.26-26.29h-.07v26.29h-21.6v-46h40.2l10.14,17.55,10.07-17.55h36.36Z"/>
        <path class="cls-1" d="M438.2,62.95h61.39v15.17h-35.03v4.12h23.98v7.34h-23.98v4.19h35.94v15.17h-62.29v-46Z"/>
        <path class="cls-1" d="M505.6,93.5h23c0,2.31,2.45,4.26,13.28,4.26s12.79-1.82,12.79-3.43c0-.98-.84-1.82-3.57-2.17-3.01-.35-10.56-.63-17.27-.91-6.36-.28-16.15-.84-21.18-2.66-4.68-1.61-7.62-4.54-7.62-9.72,0-8.6,10.63-16.99,38.45-16.99,32.09,0,35.59,9.44,35.59,16.08h-22.09c0-2.03-2.8-3.85-12.93-3.85-9.44,0-12.58,1.47-12.58,3.15,0,.84.7,1.68,2.73,1.96,1.89.28,9.23.7,16.85.98,8.6.35,16.5.77,22.37,2.38,5.66,1.61,8.46,5.1,8.46,9.58,0,6.43-3.36,17.83-39.01,17.83s-37.27-12.58-37.27-16.5Z"/>
      </g>
    </g>
  </g>
</svg>