<svg width="3161" height="427" viewBox="0 0 3161 427" fill="none" xmlns="http://www.w3.org/2000/svg">
<path d="M2904.63 213.5H2947.33V256.2H2904.63V213.5ZM2947.33 213.5H2990.03V256.2H2947.33V213.5ZM2990.03 213.5H3032.73V256.2H2990.03V213.5ZM3032.73 213.5H3075.43V256.2H3032.73V213.5ZM2947.33 256.2H2990.03V298.9H2947.33V256.2ZM2904.63 256.2H2947.33V298.9H2904.63V256.2ZM2990.03 256.2H3032.73V298.9H2990.03V256.2ZM3032.73 256.2H3075.43V298.9H3032.73V256.2ZM3075.43 298.9H3118.13V341.6H3075.43V298.9ZM3118.13 256.2H3160.83V298.9H3118.13V256.2ZM3075.43 256.2H3118.13V298.9H3075.43V256.2ZM3118.13 298.9H3160.83V341.6H3118.13V298.9ZM3075.43 341.6H3118.13V384.3H3075.43V341.6ZM3118.13 341.6H3160.83V384.3H3118.13V341.6ZM3118.13 384.3H3160.83V427H3118.13V384.3ZM3075.43 384.3H3118.13V427H3075.43V384.3ZM2904.63 384.3H2947.33V427H2904.63V384.3ZM2861.93 384.3H2904.63V427H2861.93V384.3ZM2861.93 341.6H2904.63V384.3H2861.93V341.6ZM2904.63 341.6H2947.33V384.3H2904.63V341.6ZM2904.63 298.9H2947.33V341.6H2904.63V298.9ZM2861.93 298.9H2904.63V341.6H2861.93V298.9ZM2861.93 256.2H2904.63V298.9H2861.93V256.2ZM2861.93 213.5H2904.63V256.2H2861.93V213.5ZM2861.93 170.8H2904.63V213.5H2861.93V170.8ZM2904.63 170.8H2947.33V213.5H2904.63V170.8ZM2861.93 0H2904.63V42.7H2861.93V0ZM2904.63 0H2947.33V42.7H2904.63V0ZM2947.33 0H2990.03V42.7H2947.33V0ZM2990.03 0H3032.73V42.7H2990.03V0ZM3032.73 0H3075.43V42.7H3032.73V0ZM3075.43 0H3118.13V42.7H3075.43V0ZM3075.43 42.7H3118.13V85.3999H3075.43V42.7ZM3032.73 42.7H3075.43V85.3999H3032.73V42.7ZM2990.03 42.7H3032.73V85.3999H2990.03V42.7ZM2947.33 42.7H2990.03V85.3999H2947.33V42.7ZM2904.63 42.7H2947.33V85.3999H2904.63V42.7ZM2861.93 42.7H2904.63V85.3999H2861.93V42.7ZM2861.93 85.3999H2904.63V128.1H2861.93V85.3999ZM2861.93 128.1H2904.63V170.8H2861.93V128.1ZM2904.63 128.1H2947.33V170.8H2904.63V128.1ZM2904.63 85.3999H2947.33V128.1H2904.63V85.3999ZM3075.43 85.3999H3118.13V128.1H3075.43V85.3999ZM3118.13 85.3999H3160.83V128.1H3118.13V85.3999ZM3118.13 42.7H3160.83V85.3999H3118.13V42.7ZM3118.13 128.1H3160.83V170.8H3118.13V128.1ZM3075.43 128.1H3118.13V170.8H3075.43V128.1ZM3075.43 170.8H3118.13V213.5H3075.43V170.8ZM3118.13 170.8H3160.83V213.5H3118.13V170.8ZM3075.43 213.5H3118.13V256.2H3075.43V213.5Z" fill="#FBFBFB"/>
<path d="M2605.62 42.7H2648.32V85.3999H2605.62V42.7ZM2648.32 42.7H2691.02V85.3999H2648.32V42.7ZM2648.32 0H2691.02V42.7H2648.32V0ZM2691.02 42.7H2733.72V85.3999H2691.02V42.7ZM2691.02 85.3999H2733.72V128.1H2691.02V85.3999ZM2733.72 85.3999H2776.42V128.1H2733.72V85.3999ZM2648.32 85.3999H2691.02V128.1H2648.32V85.3999ZM2605.62 85.3999H2648.32V128.1H2605.62V85.3999ZM2562.92 85.3999H2605.62V128.1H2562.92V85.3999ZM2562.92 128.1H2605.62V170.8H2562.92V128.1ZM2520.22 128.1H2562.92V170.8H2520.22V128.1ZM2605.62 128.1H2648.32V170.8H2605.62V128.1ZM2562.92 170.8H2605.62V213.5H2562.92V170.8ZM2562.92 213.5H2605.62V256.2H2562.92V213.5ZM2562.92 256.2H2605.62V298.9H2562.92V256.2ZM2605.62 256.2H2648.32V298.9H2605.62V256.2ZM2648.32 256.2H2691.02V298.9H2648.32V256.2ZM2691.02 256.2H2733.72V298.9H2691.02V256.2ZM2733.72 256.2H2776.42V298.9H2733.72V256.2ZM2776.42 256.2H2819.12V298.9H2776.42V256.2ZM2776.42 213.5H2819.12V256.2H2776.42V213.5ZM2776.42 170.8H2819.12V213.5H2776.42V170.8ZM2776.42 128.1H2819.12V170.8H2776.42V128.1ZM2733.72 128.1H2776.42V170.8H2733.72V128.1ZM2691.02 128.1H2733.72V170.8H2691.02V128.1ZM2733.72 170.8H2776.42V213.5H2733.72V170.8ZM2733.72 213.5H2776.42V256.2H2733.72V213.5ZM2733.72 298.9H2776.42V341.6H2733.72V298.9ZM2776.42 298.9H2819.12V341.6H2776.42V298.9ZM2776.42 341.6H2819.12V384.3H2776.42V341.6ZM2776.42 384.3H2819.12V427H2776.42V384.3ZM2733.72 384.3H2776.42V427H2733.72V384.3ZM2733.72 341.6H2776.42V384.3H2733.72V341.6ZM2691.02 298.9H2733.72V341.6H2691.02V298.9ZM2648.32 298.9H2691.02V341.6H2648.32V298.9ZM2605.62 298.9H2648.32V341.6H2605.62V298.9ZM2562.92 298.9H2605.62V341.6H2562.92V298.9ZM2562.92 341.6H2605.62V384.3H2562.92V341.6ZM2562.92 384.3H2605.62V427H2562.92V384.3ZM2520.22 384.3H2562.92V427H2520.22V384.3ZM2520.22 341.6H2562.92V384.3H2520.22V341.6ZM2520.22 298.9H2562.92V341.6H2520.22V298.9ZM2520.22 256.2H2562.92V298.9H2520.22V256.2ZM2520.22 213.5H2562.92V256.2H2520.22V213.5ZM2520.22 170.8H2562.92V213.5H2520.22V170.8Z" fill="#FBFBFB"/>
<path d="M2263.91 0H2306.61V42.7H2263.91V0ZM2221.21 0H2263.91V42.7H2221.21V0ZM2221.21 42.7H2263.91V85.3999H2221.21V42.7ZM2263.91 42.7H2306.61V85.3999H2263.91V42.7ZM2306.61 42.7H2349.31V85.3999H2306.61V42.7ZM2306.61 0H2349.31V42.7H2306.61V0ZM2349.31 0H2392.01V42.7H2349.31V0ZM2392.01 0H2434.71V42.7H2392.01V0ZM2392.01 42.7H2434.71V85.3999H2392.01V42.7ZM2349.31 42.7H2392.01V85.3999H2349.31V42.7ZM2349.31 85.3999H2392.01V128.1H2349.31V85.3999ZM2392.01 85.3999H2434.71V128.1H2392.01V85.3999ZM2434.71 42.7H2477.41V85.3999H2434.71V42.7ZM2434.71 85.3999H2477.41V128.1H2434.71V85.3999ZM2434.71 128.1H2477.41V170.8H2434.71V128.1ZM2434.71 170.8H2477.41V213.5H2434.71V170.8ZM2434.71 213.5H2477.41V256.2H2434.71V213.5ZM2434.71 256.2H2477.41V298.9H2434.71V256.2ZM2434.71 298.9H2477.41V341.6H2434.71V298.9ZM2434.71 341.6H2477.41V384.3H2434.71V341.6ZM2392.01 341.6H2434.71V384.3H2392.01V341.6ZM2392.01 298.9H2434.71V341.6H2392.01V298.9ZM2392.01 256.2H2434.71V298.9H2392.01V256.2ZM2392.01 213.5H2434.71V256.2H2392.01V213.5ZM2392.01 170.8H2434.71V213.5H2392.01V170.8ZM2392.01 128.1H2434.71V170.8H2392.01V128.1ZM2349.31 298.9H2392.01V341.6H2349.31V298.9ZM2349.31 341.6H2392.01V384.3H2349.31V341.6ZM2392.01 384.3H2434.71V427H2392.01V384.3ZM2349.31 384.3H2392.01V427H2349.31V384.3ZM2306.61 384.3H2349.31V427H2306.61V384.3ZM2306.61 341.6H2349.31V384.3H2306.61V341.6ZM2263.91 384.3H2306.61V427H2263.91V384.3ZM2221.21 384.3H2263.91V427H2221.21V384.3ZM2221.21 341.6H2263.91V384.3H2221.21V341.6ZM2263.91 341.6H2306.61V384.3H2263.91V341.6ZM2221.21 298.9H2263.91V341.6H2221.21V298.9ZM2178.51 341.6H2221.21V384.3H2178.51V341.6ZM2178.51 298.9H2221.21V341.6H2178.51V298.9ZM2178.51 256.2H2221.21V298.9H2178.51V256.2ZM2178.51 213.5H2221.21V256.2H2178.51V213.5ZM2178.51 170.8H2221.21V213.5H2178.51V170.8ZM2178.51 128.1H2221.21V170.8H2178.51V128.1ZM2178.51 85.3999H2221.21V128.1H2178.51V85.3999ZM2221.21 85.3999H2263.91V128.1H2221.21V85.3999ZM2178.51 42.7H2221.21V85.3999H2178.51V42.7ZM2221.21 128.1H2263.91V170.8H2221.21V128.1ZM2221.21 170.8H2263.91V213.5H2221.21V170.8ZM2221.21 213.5H2263.91V256.2H2221.21V213.5ZM2221.21 256.2H2263.91V298.9H2221.21V256.2ZM2178.51 384.3H2221.21V427H2178.51V384.3ZM2178.51 0H2221.21V42.7H2178.51V0Z" fill="#FBFBFB"/>
<path d="M1922.2 42.7H1964.9V85.3999H1922.2V42.7ZM1964.9 42.7H2007.6V85.3999H1964.9V42.7ZM1964.9 0H2007.6V42.7H1964.9V0ZM2007.6 42.7H2050.3V85.3999H2007.6V42.7ZM2007.6 85.3999H2050.3V128.1H2007.6V85.3999ZM2050.3 85.3999H2093V128.1H2050.3V85.3999ZM1964.9 85.3999H2007.6V128.1H1964.9V85.3999ZM1922.2 85.3999H1964.9V128.1H1922.2V85.3999ZM1879.5 85.3999H1922.2V128.1H1879.5V85.3999ZM1879.5 128.1H1922.2V170.8H1879.5V128.1ZM1836.8 128.1H1879.5V170.8H1836.8V128.1ZM1922.2 128.1H1964.9V170.8H1922.2V128.1ZM1879.5 170.8H1922.2V213.5H1879.5V170.8ZM1879.5 213.5H1922.2V256.2H1879.5V213.5ZM1879.5 256.2H1922.2V298.9H1879.5V256.2ZM1922.2 256.2H1964.9V298.9H1922.2V256.2ZM1964.9 256.2H2007.6V298.9H1964.9V256.2ZM2007.6 256.2H2050.3V298.9H2007.6V256.2ZM2050.3 256.2H2093V298.9H2050.3V256.2ZM2093 256.2H2135.7V298.9H2093V256.2ZM2093 213.5H2135.7V256.2H2093V213.5ZM2093 170.8H2135.7V213.5H2093V170.8ZM2093 128.1H2135.7V170.8H2093V128.1ZM2050.3 128.1H2093V170.8H2050.3V128.1ZM2007.6 128.1H2050.3V170.8H2007.6V128.1ZM2050.3 170.8H2093V213.5H2050.3V170.8ZM2050.3 213.5H2093V256.2H2050.3V213.5ZM2050.3 298.9H2093V341.6H2050.3V298.9ZM2093 298.9H2135.7V341.6H2093V298.9ZM2093 341.6H2135.7V384.3H2093V341.6ZM2093 384.3H2135.7V427H2093V384.3ZM2050.3 384.3H2093V427H2050.3V384.3ZM2050.3 341.6H2093V384.3H2050.3V341.6ZM2007.6 298.9H2050.3V341.6H2007.6V298.9ZM1964.9 298.9H2007.6V341.6H1964.9V298.9ZM1922.2 298.9H1964.9V341.6H1922.2V298.9ZM1879.5 298.9H1922.2V341.6H1879.5V298.9ZM1879.5 341.6H1922.2V384.3H1879.5V341.6ZM1879.5 384.3H1922.2V427H1879.5V384.3ZM1836.8 384.3H1879.5V427H1836.8V384.3ZM1836.8 341.6H1879.5V384.3H1836.8V341.6ZM1836.8 298.9H1879.5V341.6H1836.8V298.9ZM1836.8 256.2H1879.5V298.9H1836.8V256.2ZM1836.8 213.5H1879.5V256.2H1836.8V213.5ZM1836.8 170.8H1879.5V213.5H1836.8V170.8Z" fill="#FBFBFB"/>
<path d="M1537.79 213.5H1580.49V256.2H1537.79V213.5ZM1580.49 213.5H1623.19V256.2H1580.49V213.5ZM1623.19 213.5H1665.89V256.2H1623.19V213.5ZM1665.89 213.5H1708.59V256.2H1665.89V213.5ZM1580.49 256.2H1623.19V298.9H1580.49V256.2ZM1537.79 256.2H1580.49V298.9H1537.79V256.2ZM1623.19 256.2H1665.89V298.9H1623.19V256.2ZM1665.89 256.2H1708.59V298.9H1665.89V256.2ZM1708.59 298.9H1751.29V341.6H1708.59V298.9ZM1751.29 256.2H1793.99V298.9H1751.29V256.2ZM1708.59 256.2H1751.29V298.9H1708.59V256.2ZM1751.29 298.9H1793.99V341.6H1751.29V298.9ZM1708.59 341.6H1751.29V384.3H1708.59V341.6ZM1751.29 341.6H1793.99V384.3H1751.29V341.6ZM1751.29 384.3H1793.99V427H1751.29V384.3ZM1708.59 384.3H1751.29V427H1708.59V384.3ZM1537.79 384.3H1580.49V427H1537.79V384.3ZM1495.09 384.3H1537.79V427H1495.09V384.3ZM1495.09 341.6H1537.79V384.3H1495.09V341.6ZM1537.79 341.6H1580.49V384.3H1537.79V341.6ZM1537.79 298.9H1580.49V341.6H1537.79V298.9ZM1495.09 298.9H1537.79V341.6H1495.09V298.9ZM1495.09 256.2H1537.79V298.9H1495.09V256.2ZM1495.09 213.5H1537.79V256.2H1495.09V213.5ZM1495.09 170.8H1537.79V213.5H1495.09V170.8ZM1537.79 170.8H1580.49V213.5H1537.79V170.8ZM1495.09 0H1537.79V42.7H1495.09V0ZM1537.79 0H1580.49V42.7H1537.79V0ZM1580.49 0H1623.19V42.7H1580.49V0ZM1623.19 0H1665.89V42.7H1623.19V0ZM1665.89 0H1708.59V42.7H1665.89V0ZM1708.59 0H1751.29V42.7H1708.59V0ZM1708.59 42.7H1751.29V85.3999H1708.59V42.7ZM1665.89 42.7H1708.59V85.3999H1665.89V42.7ZM1623.19 42.7H1665.89V85.3999H1623.19V42.7ZM1580.49 42.7H1623.19V85.3999H1580.49V42.7ZM1537.79 42.7H1580.49V85.3999H1537.79V42.7ZM1495.09 42.7H1537.79V85.3999H1495.09V42.7ZM1495.09 85.3999H1537.79V128.1H1495.09V85.3999ZM1495.09 128.1H1537.79V170.8H1495.09V128.1ZM1537.79 128.1H1580.49V170.8H1537.79V128.1ZM1537.79 85.3999H1580.49V128.1H1537.79V85.3999ZM1708.59 85.3999H1751.29V128.1H1708.59V85.3999ZM1751.29 85.3999H1793.99V128.1H1751.29V85.3999ZM1751.29 42.7H1793.99V85.3999H1751.29V42.7ZM1751.29 128.1H1793.99V170.8H1751.29V128.1ZM1708.59 128.1H1751.29V170.8H1708.59V128.1ZM1708.59 170.8H1751.29V213.5H1708.59V170.8ZM1751.29 170.8H1793.99V213.5H1751.29V170.8ZM1708.59 213.5H1751.29V256.2H1708.59V213.5Z" fill="#FBFBFB"/>
<path d="M1025.72 0H1068.42V42.7H1025.72V0ZM1068.42 0H1111.12V42.7H1068.42V0ZM1068.42 42.7H1111.12V85.3999H1068.42V42.7ZM1068.42 85.3999H1111.12V128.1H1068.42V85.3999ZM1068.42 128.1H1111.12V170.8H1068.42V128.1ZM1025.72 128.1H1068.42V170.8H1025.72V128.1ZM1025.72 85.3999H1068.42V128.1H1025.72V85.3999ZM1025.72 42.7H1068.42V85.3999H1025.72V42.7ZM1025.72 170.8H1068.42V213.5H1025.72V170.8ZM1025.72 213.5H1068.42V256.2H1025.72V213.5ZM1025.72 256.2H1068.42V298.9H1025.72V256.2ZM1068.42 213.5H1111.12V256.2H1068.42V213.5ZM1068.42 170.8H1111.12V213.5H1068.42V170.8ZM1068.42 256.2H1111.12V298.9H1068.42V256.2ZM1068.42 298.9H1111.12V341.6H1068.42V298.9ZM1025.72 341.6H1068.42V384.3H1025.72V341.6ZM1025.72 298.9H1068.42V341.6H1025.72V298.9ZM1025.72 384.3H1068.42V427H1025.72V384.3ZM1068.42 384.3H1111.12V427H1068.42V384.3ZM1068.42 341.6H1111.12V384.3H1068.42V341.6ZM1111.12 384.3H1153.82V427H1111.12V384.3ZM1153.82 384.3H1196.52V427H1153.82V384.3ZM1196.52 384.3H1239.22V427H1196.52V384.3ZM1196.52 341.6H1239.22V384.3H1196.52V341.6ZM1153.82 341.6H1196.52V384.3H1153.82V341.6ZM1111.12 341.6H1153.82V384.3H1111.12V341.6ZM1111.12 0H1153.82V42.7H1111.12V0ZM1153.82 0H1196.52V42.7H1153.82V0ZM1196.52 0H1239.22V42.7H1196.52V0ZM1239.22 0H1281.92V42.7H1239.22V0ZM1196.52 42.7H1239.22V85.3999H1196.52V42.7ZM1153.82 42.7H1196.52V85.3999H1153.82V42.7ZM1111.12 42.7H1153.82V85.3999H1111.12V42.7ZM1111.12 213.5H1153.82V256.2H1111.12V213.5ZM1153.82 170.8H1196.52V213.5H1153.82V170.8ZM1111.12 170.8H1153.82V213.5H1111.12V170.8ZM1153.82 213.5H1196.52V256.2H1153.82V213.5ZM1239.22 42.7H1281.92V85.3999H1239.22V42.7ZM1239.22 341.6H1281.92V384.3H1239.22V341.6ZM1239.22 384.3H1281.92V427H1239.22V384.3ZM1196.52 170.8H1239.22V213.5H1196.52V170.8ZM1196.52 213.5H1239.22V256.2H1196.52V213.5Z" fill="#FBFBFB"/>
<path d="M812.113 384.3H854.813V427H812.113V384.3ZM812.113 341.6H854.813V384.3H812.113V341.6ZM812.113 298.9H854.813V341.6H812.113V298.9ZM769.412 341.6H812.113V384.3H769.412V341.6ZM769.412 298.9H812.113V341.6H769.412V298.9ZM769.412 256.2H812.113V298.9H769.412V256.2ZM726.713 298.9H769.412V341.6H726.713V298.9ZM726.713 256.2H769.412V298.9H726.713V256.2ZM854.813 298.9H897.513V341.6H854.813V298.9ZM854.813 341.6H897.513V384.3H854.813V341.6ZM854.813 256.2H897.513V298.9H854.813V256.2ZM897.513 256.2H940.212V298.9H897.513V256.2ZM897.513 298.9H940.212V341.6H897.513V298.9ZM940.212 256.2H982.913V298.9H940.212V256.2ZM684.013 256.2H726.713V298.9H684.013V256.2ZM897.513 0H940.212V42.7H897.513V0ZM940.212 0H982.913V42.7H940.212V0ZM940.212 42.7H982.913V85.3999H940.212V42.7ZM940.212 85.3999H982.913V128.1H940.212V85.3999ZM940.212 128.1H982.913V170.8H940.212V128.1ZM940.212 170.8H982.913V213.5H940.212V170.8ZM897.513 170.8H940.212V213.5H897.513V170.8ZM897.513 213.5H940.212V256.2H897.513V213.5ZM897.513 128.1H940.212V170.8H897.513V128.1ZM897.513 85.3999H940.212V128.1H897.513V85.3999ZM897.513 42.7H940.212V85.3999H897.513V42.7ZM940.212 213.5H982.913V256.2H940.212V213.5ZM726.713 213.5H769.412V256.2H726.713V213.5ZM684.013 213.5H726.713V256.2H684.013V213.5ZM684.013 170.8H726.713V213.5H684.013V170.8ZM726.713 170.8H769.412V213.5H726.713V170.8ZM726.713 128.1H769.412V170.8H726.713V128.1ZM684.013 128.1H726.713V170.8H684.013V128.1ZM684.013 85.3999H726.713V128.1H684.013V85.3999ZM726.713 85.3999H769.412V128.1H726.713V85.3999ZM684.013 0H726.713V42.7H684.013V0ZM726.713 0H769.412V42.7H726.713V0ZM726.713 42.7H769.412V85.3999H726.713V42.7ZM684.013 42.7H726.713V85.3999H684.013V42.7Z" fill="#FBFBFB"/>
<path d="M427.702 42.7H470.402V85.3999H427.702V42.7ZM470.402 42.7H513.102V85.3999H470.402V42.7ZM470.402 0H513.102V42.7H470.402V0ZM513.102 42.7H555.802V85.3999H513.102V42.7ZM513.102 85.3999H555.802V128.1H513.102V85.3999ZM555.802 85.3999H598.502V128.1H555.802V85.3999ZM470.402 85.3999H513.102V128.1H470.402V85.3999ZM427.702 85.3999H470.402V128.1H427.702V85.3999ZM385.002 85.3999H427.702V128.1H385.002V85.3999ZM385.002 128.1H427.702V170.8H385.002V128.1ZM342.302 128.1H385.002V170.8H342.302V128.1ZM427.702 128.1H470.402V170.8H427.702V128.1ZM385.002 170.8H427.702V213.5H385.002V170.8ZM385.002 213.5H427.702V256.2H385.002V213.5ZM385.002 256.2H427.702V298.9H385.002V256.2ZM427.702 256.2H470.402V298.9H427.702V256.2ZM470.402 256.2H513.102V298.9H470.402V256.2ZM513.102 256.2H555.802V298.9H513.102V256.2ZM555.802 256.2H598.502V298.9H555.802V256.2ZM598.502 256.2H641.202V298.9H598.502V256.2ZM598.502 213.5H641.202V256.2H598.502V213.5ZM598.502 170.8H641.202V213.5H598.502V170.8ZM598.502 128.1H641.202V170.8H598.502V128.1ZM555.802 128.1H598.502V170.8H555.802V128.1ZM513.102 128.1H555.802V170.8H513.102V128.1ZM555.802 170.8H598.502V213.5H555.802V170.8ZM555.802 213.5H598.502V256.2H555.802V213.5ZM555.802 298.9H598.502V341.6H555.802V298.9ZM598.502 298.9H641.202V341.6H598.502V298.9ZM598.502 341.6H641.202V384.3H598.502V341.6ZM598.502 384.3H641.202V427H598.502V384.3ZM555.802 384.3H598.502V427H555.802V384.3ZM555.802 341.6H598.502V384.3H555.802V341.6ZM513.102 298.9H555.802V341.6H513.102V298.9ZM470.402 298.9H513.102V341.6H470.402V298.9ZM427.702 298.9H470.402V341.6H427.702V298.9ZM385.002 298.9H427.702V341.6H385.002V298.9ZM385.002 341.6H427.702V384.3H385.002V341.6ZM385.002 384.3H427.702V427H385.002V384.3ZM342.302 384.3H385.002V427H342.302V384.3ZM342.302 341.6H385.002V384.3H342.302V341.6ZM342.302 298.9H385.002V341.6H342.302V298.9ZM342.302 256.2H385.002V298.9H342.302V256.2ZM342.302 213.5H385.002V256.2H342.302V213.5ZM342.302 170.8H385.002V213.5H342.302V170.8Z" fill="#FBFBFB"/>
<path d="M43.2907 213.5H85.9904V256.2H43.2907V213.5ZM85.9904 213.5H128.69V256.2H85.9904V213.5ZM128.69 213.5H171.391V256.2H128.69V213.5ZM171.391 213.5H214.091V256.2H171.391V213.5ZM85.9904 256.2H128.69V298.9H85.9904V256.2ZM43.2907 256.2H85.9904V298.9H43.2907V256.2ZM128.69 256.2H171.391V298.9H128.69V256.2ZM171.391 256.2H214.091V298.9H171.391V256.2ZM214.091 298.9H256.79V341.6H214.091V298.9ZM256.79 256.2H299.49V298.9H256.79V256.2ZM214.091 256.2H256.79V298.9H214.091V256.2ZM256.79 298.9H299.49V341.6H256.79V298.9ZM214.091 341.6H256.79V384.3H214.091V341.6ZM256.79 341.6H299.49V384.3H256.79V341.6ZM256.79 384.3H299.49V427H256.79V384.3ZM214.091 384.3H256.79V427H214.091V384.3ZM43.2907 384.3H85.9904V427H43.2907V384.3ZM0.590576 384.3H43.2907V427H0.590576V384.3ZM0.590576 341.6H43.2907V384.3H0.590576V341.6ZM43.2907 341.6H85.9904V384.3H43.2907V341.6ZM43.2907 298.9H85.9904V341.6H43.2907V298.9ZM0.590576 298.9H43.2907V341.6H0.590576V298.9ZM0.590576 256.2H43.2907V298.9H0.590576V256.2ZM0.590576 213.5H43.2907V256.2H0.590576V213.5ZM0.590576 170.8H43.2907V213.5H0.590576V170.8ZM43.2907 170.8H85.9904V213.5H43.2907V170.8ZM0.590576 0H43.2907V42.7H0.590576V0ZM43.2907 0H85.9904V42.7H43.2907V0ZM85.9904 0H128.69V42.7H85.9904V0ZM128.69 0H171.391V42.7H128.69V0ZM171.391 0H214.091V42.7H171.391V0ZM214.091 0H256.79V42.7H214.091V0ZM214.091 42.7H256.79V85.3999H214.091V42.7ZM171.391 42.7H214.091V85.3999H171.391V42.7ZM128.69 42.7H171.391V85.3999H128.69V42.7ZM85.9904 42.7H128.69V85.3999H85.9904V42.7ZM43.2907 42.7H85.9904V85.3999H43.2907V42.7ZM0.590576 42.7H43.2907V85.3999H0.590576V42.7ZM0.590576 85.3999H43.2907V128.1H0.590576V85.3999ZM0.590576 128.1H43.2907V170.8H0.590576V128.1ZM43.2907 128.1H85.9904V170.8H43.2907V128.1ZM43.2907 85.3999H85.9904V128.1H43.2907V85.3999ZM214.091 85.3999H256.79V128.1H214.091V85.3999ZM256.79 85.3999H299.49V128.1H256.79V85.3999ZM256.79 42.7H299.49V85.3999H256.79V42.7ZM256.79 128.1H299.49V170.8H256.79V128.1ZM214.091 128.1H256.79V170.8H214.091V128.1ZM214.091 170.8H256.79V213.5H214.091V170.8ZM256.79 170.8H299.49V213.5H256.79V170.8ZM214.091 213.5H256.79V256.2H214.091V213.5Z" fill="#FBFBFB"/>
</svg>
